<svg width="48" height="48" viewBox="0 0 48 48" fill="none" xmlns="http://www.w3.org/2000/svg">
<path d="M24 47.2505C36.8406 47.2505 47.25 36.8411 47.25 24.0005C47.25 11.1599 36.8406 0.750488 24 0.750488C11.1594 0.750488 0.75 11.1599 0.75 24.0005C0.75 36.8411 11.1594 47.2505 24 47.2505Z" fill="#EA4C89"/>
<path fill-rule="evenodd" clip-rule="evenodd" d="M24 0.000488281C10.7505 0.000488281 0 10.751 0 24.0005C0 37.25 10.7505 48.0005 24 48.0005C37.2234 48.0005 48 37.25 48 24.0005C48 10.751 37.2234 0.000488281 24 0.000488281ZM39.8525 11.0634C42.7158 14.5515 44.4339 19.0026 44.486 23.8182C43.8092 23.6882 37.0411 22.3085 30.2212 23.1675C30.0651 22.8291 29.9349 22.4646 29.7788 22.1003C29.3622 21.1112 28.8937 20.096 28.4251 19.1328C35.9739 16.0613 39.41 11.6361 39.8525 11.0634ZM24 3.54062C29.2061 3.54062 33.9696 5.4929 37.5879 8.69464C37.2234 9.21524 34.1258 13.3541 26.8372 16.0872C23.4793 9.91805 19.7571 4.86817 19.1844 4.08725C20.7201 3.72283 22.3341 3.54062 24 3.54062ZM15.2799 5.46686C15.8265 6.19571 19.4708 11.2716 22.8807 17.3106C13.3015 19.8617 4.84165 19.8096 3.93058 19.8096C5.25813 13.4582 9.55314 8.17402 15.2799 5.46686ZM3.48807 24.0266C3.48807 23.8182 3.48807 23.61 3.48807 23.4018C4.3731 23.4278 14.3167 23.558 24.5466 20.4864C25.1454 21.6317 25.692 22.803 26.2127 23.9744C25.9522 24.0525 25.6659 24.1307 25.4056 24.2087C14.8373 27.6186 9.21476 36.9375 8.7462 37.7184C5.4924 34.1003 3.48807 29.2847 3.48807 24.0266ZM24 44.5124C19.2624 44.5124 14.8894 42.8985 11.4273 40.1913C11.7918 39.4365 15.9565 31.4192 27.514 27.3845C27.5661 27.3584 27.5922 27.3584 27.6443 27.3324C30.5336 34.803 31.705 41.0763 32.0173 42.8724C29.5444 43.9397 26.8372 44.5124 24 44.5124ZM35.4273 40.9983C35.2191 39.7488 34.1258 33.7619 31.4447 26.3952C37.8743 25.38 43.4967 27.0461 44.1996 27.2804C43.3146 32.981 40.0347 37.9007 35.4273 40.9983Z" fill="#C32361"/>
</svg>
