<svg width="48" height="48" viewBox="0 0 48 48" fill="none" xmlns="http://www.w3.org/2000/svg">
<g clip-path="url(#clip0_7_409)">
<path d="M44.4567 0.000732422H3.54333C2.60358 0.000732422 1.70232 0.374047 1.03782 1.03855C0.373315 1.70306 0 2.60432 0 3.54407V44.4574C0 45.3971 0.373315 46.2984 1.03782 46.9629C1.70232 47.6274 2.60358 48.0007 3.54333 48.0007H44.4567C45.3964 48.0007 46.2977 47.6274 46.9622 46.9629C47.6267 46.2984 48 45.3971 48 44.4574V3.54407C48 2.60432 47.6267 1.70306 46.9622 1.03855C46.2977 0.374047 45.3964 0.000732422 44.4567 0.000732422ZM14.3067 40.8907H7.09V17.9674H14.3067V40.8907ZM10.6933 14.7907C9.87473 14.7861 9.07583 14.5391 8.39747 14.0809C7.71911 13.6227 7.19168 12.9738 6.88175 12.2161C6.57183 11.4584 6.4933 10.6259 6.65606 9.82364C6.81883 9.02137 7.2156 8.28529 7.79631 7.7083C8.37702 7.13131 9.11563 6.73927 9.91893 6.58165C10.7222 6.42404 11.5542 6.50792 12.3099 6.8227C13.0656 7.13749 13.7111 7.66907 14.1649 8.35036C14.6188 9.03165 14.8606 9.83212 14.86 10.6507C14.8677 11.1988 14.765 11.7428 14.558 12.2503C14.351 12.7579 14.044 13.2185 13.6551 13.6049C13.2663 13.9912 12.8037 14.2953 12.2948 14.499C11.786 14.7028 11.2413 14.802 10.6933 14.7907ZM40.9067 40.9107H33.6933V28.3874C33.6933 24.6941 32.1233 23.5541 30.0967 23.5541C27.9567 23.5541 25.8567 25.1674 25.8567 28.4807V40.9107H18.64V17.9841H25.58V21.1607H25.6733C26.37 19.7507 28.81 17.3407 32.5333 17.3407C36.56 17.3407 40.91 19.7307 40.91 26.7307L40.9067 40.9107Z" fill="#0A66C2"/>
</g>
<defs>
<clipPath id="clip0_7_409">
<rect width="48" height="48" fill="white" transform="translate(0 0.000732422)"/>
</clipPath>
</defs>
</svg>
